<svg xmlns="http://www.w3.org/2000/svg" viewBox="0 0 600 600"><defs><style>.cls-1{fill:#f8fdff;}.cls-2{fill:#0b6e51;}</style></defs><g id="Слой_2" data-name="Слой 2"><g id="Слой_1-2" data-name="Слой 1"><rect class="cls-1" width="600" height="600" rx="102.39"/><g id="Слой_2-2" data-name="Слой 2"><g id="Слой_1-2-2" data-name="Слой 1-2"><path class="cls-2" d="M156.85,116.5a40.29,40.29,0,0,1,40.25,40.25V442.5a40.26,40.26,0,0,1-80.51,0V156.75a40.3,40.3,0,0,1,40.26-40.25m0-33.15h0a73.41,73.41,0,0,0-73.41,73.4V442.5a73.41,73.41,0,0,0,73.41,73.41h0a73.41,73.41,0,0,0,73.41-73.41h0V156.75A73.41,73.41,0,0,0,156.85,83.35Z"/><path class="cls-2" d="M442.59,402.24a40.26,40.26,0,1,1,0,80.51H156.85a40.26,40.26,0,1,1,0-80.51H442.59m0-33.15H156.85A73.41,73.41,0,0,0,83.44,442.5h0a73.41,73.41,0,0,0,73.41,73.41H442.59A73.41,73.41,0,0,0,516,442.5h0a73.41,73.41,0,0,0-73.41-73.41Z"/><path class="cls-2" d="M442.59,116.5a40.26,40.26,0,1,1,0,80.51H156.85a40.26,40.26,0,1,1,0-80.51H442.59m0-33.15H156.85a73.41,73.41,0,0,0-73.41,73.4h0a73.41,73.41,0,0,0,73.41,73.41H442.59A73.41,73.41,0,0,0,516,156.75h0A73.41,73.41,0,0,0,442.59,83.35Z"/><path class="cls-2" d="M442.59,116.5a40.3,40.3,0,0,1,40.26,40.25V442.5a40.26,40.26,0,0,1-80.52,0V156.75a40.3,40.3,0,0,1,40.26-40.25m0-33.15h0a73.41,73.41,0,0,0-73.41,73.4V442.5a73.41,73.41,0,0,0,73.41,73.41h0A73.41,73.41,0,0,0,516,442.5h0V156.75A73.41,73.41,0,0,0,442.59,83.35Z"/></g></g></g></g></svg>